<svg xmlns="http://www.w3.org/2000/svg" xmlns:xlink="http://www.w3.org/1999/xlink" contentStyleType="text/css" data-diagram-type="CLASS" height="333px" preserveAspectRatio="none" style="width:927px;height:333px;background:#FFFFFF;" version="1.1" viewBox="0 0 927 333" width="927px" zoomAndPan="magnify"><defs/><g><!--class clubs--><g class="entity" data-entity="clubs" data-source-line="5" data-uid="ent0002" id="entity_clubs"><rect fill="#F1F1F1" height="113.1875" rx="2.5" ry="2.5" style="stroke:#181818;stroke-width:0.5;" width="235.5352" x="279.94" y="7"/><ellipse cx="375.1373" cy="23" fill="#FFAAAA" rx="11" ry="11" style="stroke:#181818;stroke-width:1;"/><path d="M373.9341,29.75 L373.9341,18.8906 L371.5435,18.8906 L371.5435,17.25 L378.231,17.25 L378.231,18.8906 L375.8404,18.8906 L375.8404,29.75 L373.9341,29.75 Z " fill="#000000"/><text fill="#000000" font-family="sans-serif" font-size="14" lengthAdjust="spacing" textLength="36.6406" x="395.6373" y="27.8467">clubs</text><line style="stroke:#181818;stroke-width:0.5;" x1="280.94" x2="514.4752" y1="39" y2="39"/><text fill="#000000" font-family="sans-serif" font-size="14" font-weight="bold" lengthAdjust="spacing" textLength="14.8203" x="285.94" y="55.9951">id</text><text fill="#000000" font-family="sans-serif" font-size="14" lengthAdjust="spacing" textLength="70.5879" x="305.2105" y="55.9951">: INTEGER</text><text fill="#000000" font-family="sans-serif" font-size="14" lengthAdjust="spacing" textLength="223.5352" x="285.94" y="72.292">name : TEXT NOT NULL UNIQUE</text><text fill="#000000" font-family="sans-serif" font-size="14" lengthAdjust="spacing" textLength="187.3457" x="285.94" y="88.5889">manager : TEXT NOT NULL</text><text fill="#000000" font-family="sans-serif" font-size="14" lengthAdjust="spacing" textLength="179.9697" x="285.94" y="104.8857">location : TEXT NOT NULL</text><line style="stroke:#181818;stroke-width:0.5;" x1="280.94" x2="514.4752" y1="112.1875" y2="112.1875"/></g><!--class branches--><g class="entity" data-entity="branches" data-source-line="12" data-uid="ent0003" id="entity_branches"><rect fill="#F1F1F1" height="96.8906" rx="2.5" ry="2.5" style="stroke:#181818;stroke-width:0.5;" width="211.4248" x="7" y="213.48"/><ellipse cx="76.1763" cy="229.48" fill="#FFAAAA" rx="11" ry="11" style="stroke:#181818;stroke-width:1;"/><path d="M74.9731,236.23 L74.9731,225.3706 L72.5825,225.3706 L72.5825,223.73 L79.27,223.73 L79.27,225.3706 L76.8794,225.3706 L76.8794,236.23 L74.9731,236.23 Z " fill="#000000"/><text fill="#000000" font-family="sans-serif" font-size="14" lengthAdjust="spacing" textLength="64.5723" x="96.6763" y="234.3267">branches</text><line style="stroke:#181818;stroke-width:0.5;" x1="8" x2="217.4248" y1="245.48" y2="245.48"/><text fill="#000000" font-family="sans-serif" font-size="14" font-weight="bold" lengthAdjust="spacing" textLength="14.8203" x="13" y="262.4751">id</text><text fill="#000000" font-family="sans-serif" font-size="14" lengthAdjust="spacing" textLength="70.5879" x="32.2705" y="262.4751">: INTEGER</text><text fill="#000000" font-family="sans-serif" font-size="14" font-style="italic" lengthAdjust="spacing" textLength="49.123" x="13" y="278.772">club_id</text><text fill="#000000" font-family="sans-serif" font-size="14" lengthAdjust="spacing" textLength="145.8516" x="66.5732" y="278.772">: INTEGER NOT NULL</text><text fill="#000000" font-family="sans-serif" font-size="14" lengthAdjust="spacing" textLength="164.124" x="13" y="295.0689">name : TEXT NOT NULL</text><line style="stroke:#181818;stroke-width:0.5;" x1="8" x2="217.4248" y1="302.3706" y2="302.3706"/></g><!--class members--><g class="entity" data-entity="members" data-source-line="18" data-uid="ent0004" id="entity_members"><rect fill="#F1F1F1" height="129.4844" rx="2.5" ry="2.5" style="stroke:#181818;stroke-width:0.5;" width="307.3125" x="253.06" y="197.19"/><ellipse cx="369.247" cy="213.19" fill="#FFAAAA" rx="11" ry="11" style="stroke:#181818;stroke-width:1;"/><path d="M368.0439,219.94 L368.0439,209.0806 L365.6533,209.0806 L365.6533,207.44 L372.3408,207.44 L372.3408,209.0806 L369.9501,209.0806 L369.9501,219.94 L368.0439,219.94 Z " fill="#000000"/><text fill="#000000" font-family="sans-serif" font-size="14" lengthAdjust="spacing" textLength="66.4385" x="389.747" y="218.0367">members</text><line style="stroke:#181818;stroke-width:0.5;" x1="254.06" x2="559.3725" y1="229.19" y2="229.19"/><text fill="#000000" font-family="sans-serif" font-size="14" font-weight="bold" lengthAdjust="spacing" textLength="14.8203" x="259.06" y="246.1851">id</text><text fill="#000000" font-family="sans-serif" font-size="14" lengthAdjust="spacing" textLength="70.5879" x="278.3305" y="246.1851">: INTEGER</text><text fill="#000000" font-family="sans-serif" font-size="14" font-style="italic" lengthAdjust="spacing" textLength="49.123" x="259.06" y="262.482">club_id</text><text fill="#000000" font-family="sans-serif" font-size="14" lengthAdjust="spacing" textLength="145.8516" x="312.6332" y="262.482">: INTEGER NOT NULL</text><text fill="#000000" font-family="sans-serif" font-size="14" lengthAdjust="spacing" textLength="164.124" x="259.06" y="278.7789">name : TEXT NOT NULL</text><text fill="#000000" font-family="sans-serif" font-size="14" lengthAdjust="spacing" textLength="92.9688" x="259.06" y="295.0757">phone : TEXT</text><text fill="#000000" font-family="sans-serif" font-size="14" lengthAdjust="spacing" textLength="295.3125" x="259.06" y="311.3726">number_of_children : INTEGER DEFAULT 0</text><line style="stroke:#181818;stroke-width:0.5;" x1="254.06" x2="559.3725" y1="318.6744" y2="318.6744"/></g><!--class sports--><g class="entity" data-entity="sports" data-source-line="26" data-uid="ent0005" id="entity_sports"><rect fill="#F1F1F1" height="96.8906" rx="2.5" ry="2.5" style="stroke:#181818;stroke-width:0.5;" width="369.7109" x="550.86" y="15.15"/><ellipse cx="709.8229" cy="31.15" fill="#FFAAAA" rx="11" ry="11" style="stroke:#181818;stroke-width:1;"/><path d="M708.6198,37.9 L708.6198,27.0406 L706.2291,27.0406 L706.2291,25.4 L712.9166,25.4 L712.9166,27.0406 L710.526,27.0406 L710.526,37.9 L708.6198,37.9 Z " fill="#000000"/><text fill="#000000" font-family="sans-serif" font-size="14" lengthAdjust="spacing" textLength="43.2852" x="730.3229" y="35.9967">sports</text><line style="stroke:#181818;stroke-width:0.5;" x1="551.86" x2="919.5709" y1="47.15" y2="47.15"/><text fill="#000000" font-family="sans-serif" font-size="14" font-weight="bold" lengthAdjust="spacing" textLength="14.8203" x="556.86" y="64.1451">id</text><text fill="#000000" font-family="sans-serif" font-size="14" lengthAdjust="spacing" textLength="70.5879" x="576.1305" y="64.1451">: INTEGER</text><text fill="#000000" font-family="sans-serif" font-size="14" lengthAdjust="spacing" textLength="223.5352" x="556.86" y="80.442">name : TEXT NOT NULL UNIQUE</text><text fill="#000000" font-family="sans-serif" font-size="14" lengthAdjust="spacing" textLength="357.7109" x="556.86" y="96.7389">number_of_teams : INTEGER NOT NULL DEFAULT 0</text><line style="stroke:#181818;stroke-width:0.5;" x1="551.86" x2="919.5709" y1="104.0406" y2="104.0406"/></g><!--class club_sports--><g class="entity" data-entity="club_sports" data-source-line="32" data-uid="ent0006" id="entity_club_sports"><rect fill="#F1F1F1" height="80.5938" rx="2.5" ry="2.5" style="stroke:#181818;stroke-width:0.5;" width="225.6914" x="613.87" y="221.63"/><ellipse cx="682.6498" cy="237.63" fill="#FFAAAA" rx="11" ry="11" style="stroke:#181818;stroke-width:1;"/><path d="M681.4467,244.38 L681.4467,233.5206 L679.056,233.5206 L679.056,231.88 L685.7435,231.88 L685.7435,233.5206 L683.3529,233.5206 L683.3529,244.38 L681.4467,244.38 Z " fill="#000000"/><text fill="#000000" font-family="sans-serif" font-size="14" lengthAdjust="spacing" textLength="79.6318" x="703.1498" y="242.4767">club_sports</text><line style="stroke:#181818;stroke-width:0.5;" x1="614.87" x2="838.5614" y1="253.63" y2="253.63"/><text fill="#000000" font-family="sans-serif" font-size="14" font-weight="bold" lengthAdjust="spacing" textLength="54.9063" x="619.87" y="270.6251">club_id</text><text fill="#000000" font-family="sans-serif" font-size="14" lengthAdjust="spacing" textLength="145.8516" x="679.2264" y="270.6251">: INTEGER NOT NULL</text><text fill="#000000" font-family="sans-serif" font-size="14" font-weight="bold" lengthAdjust="spacing" textLength="63.3896" x="619.87" y="286.922">sport_id</text><text fill="#000000" font-family="sans-serif" font-size="14" lengthAdjust="spacing" textLength="145.8516" x="687.7098" y="286.922">: INTEGER NOT NULL</text><line style="stroke:#181818;stroke-width:0.5;" x1="614.87" x2="838.5614" y1="294.2238" y2="294.2238"/></g><!--link clubs to branches--><g class="link" data-entity-1="clubs" data-entity-2="branches" data-source-line="37" data-uid="lnk7" id="link_clubs_branches"><path codeLine="37" d="M309.8322,125.1288 C267.3922,154.3688 237.4039,175.0296 196.8539,202.9596" fill="none" id="clubs-branches" style="stroke:#181818;stroke-width:1;"/><line style="stroke:#181818;stroke-width:1;" x1="310.8567" x2="315.3955" y1="119.5655" y2="126.1533"/><line style="stroke:#181818;stroke-width:1;" x1="308.3863" x2="312.9251" y1="121.2676" y2="127.8554"/><line style="stroke:#181818;stroke-width:1;" x1="309.8322" x2="316.42" y1="125.1288" y2="120.59"/><line style="stroke:#181818;stroke-width:1;" x1="188.6184" x2="185.4335" y1="208.632" y2="218.1113"/><line style="stroke:#181818;stroke-width:1;" x1="188.6184" x2="178.6265" y1="208.632" y2="208.2287"/><line style="stroke:#181818;stroke-width:1;" x1="188.6184" x2="182.03" y1="208.632" y2="213.17"/><ellipse cx="193.5597" cy="205.2286" fill="none" rx="4" ry="4" style="stroke:#181818;stroke-width:1;"/><text fill="#000000" font-family="sans-serif" font-size="13" lengthAdjust="spacing" textLength="22.9785" x="273.28" y="163.2569">has</text></g><!--link clubs to members--><g class="link" data-entity-1="clubs" data-entity-2="members" data-source-line="38" data-uid="lnk8" id="link_clubs_members"><path codeLine="38" d="M400.646,128.5816 C401.736,152.3816 401.8244,154.2989 402.9544,178.9089" fill="none" id="clubs-members" style="stroke:#181818;stroke-width:1;"/><line style="stroke:#181818;stroke-width:1;" x1="396.4672" x2="404.4588" y1="124.7688" y2="124.4028"/><line style="stroke:#181818;stroke-width:1;" x1="396.6044" x2="404.5961" y1="127.7657" y2="127.3997"/><line style="stroke:#181818;stroke-width:1;" x1="400.646" x2="400.28" y1="128.5816" y2="120.59"/><line style="stroke:#181818;stroke-width:1;" x1="403.4131" x2="409.7737" y1="188.8984" y2="196.6148"/><line style="stroke:#181818;stroke-width:1;" x1="403.4131" x2="397.7863" y1="188.8984" y2="197.1652"/><line style="stroke:#181818;stroke-width:1;" x1="403.4131" x2="403.78" y1="188.8984" y2="196.89"/><ellipse cx="403.1378" cy="182.9047" fill="none" rx="4" ry="4" style="stroke:#181818;stroke-width:1;"/><text fill="#000000" font-family="sans-serif" font-size="13" lengthAdjust="spacing" textLength="22.9785" x="403.21" y="163.2569">has</text></g><!--link clubs to club_sports--><g class="link" data-entity-1="clubs" data-entity-2="club_sports" data-source-line="39" data-uid="lnk9" id="link_clubs_club_sports"><path codeLine="39" d="M498.4201,124.6891 C552.2701,156.8191 596.2524,183.0771 644.7224,211.9971" fill="none" id="clubs-club_sports" style="stroke:#181818;stroke-width:1;"/><line style="stroke:#181818;stroke-width:1;" x1="492.9355" x2="497.0346" y1="126.0746" y2="119.2045"/><line style="stroke:#181818;stroke-width:1;" x1="495.5118" x2="499.6108" y1="127.6117" y2="120.7417"/><line style="stroke:#181818;stroke-width:1;" x1="498.4201" x2="491.55" y1="124.6891" y2="120.59"/><line style="stroke:#181818;stroke-width:1;" x1="653.3099" x2="663.2543" y1="217.1209" y2="216.0675"/><line style="stroke:#181818;stroke-width:1;" x1="653.3099" x2="657.1057" y1="217.1209" y2="226.3725"/><line style="stroke:#181818;stroke-width:1;" x1="653.3099" x2="660.18" y1="217.1209" y2="221.22"/><ellipse cx="648.1574" cy="214.0466" fill="none" rx="4" ry="4" style="stroke:#181818;stroke-width:1;"/><text fill="#000000" font-family="sans-serif" font-size="13" lengthAdjust="spacing" textLength="4.1323" x="563.21" y="163.2569">&#160;</text></g><!--link sports to club_sports--><g class="link" data-entity-1="sports" data-entity-2="club_sports" data-source-line="40" data-uid="lnk10" id="link_sports_club_sports"><path codeLine="40" d="M733.1536,120.3616 C731.6236,153.7316 730.7933,171.7888 729.3533,203.2388" fill="none" id="sports-club_sports" style="stroke:#181818;stroke-width:1;"/><line style="stroke:#181818;stroke-width:1;" x1="729.341" x2="737.3326" y1="116.1826" y2="116.549"/><line style="stroke:#181818;stroke-width:1;" x1="729.2036" x2="737.1952" y1="119.1794" y2="119.5459"/><line style="stroke:#181818;stroke-width:1;" x1="733.1536" x2="733.52" y1="120.3616" y2="112.37"/><line style="stroke:#181818;stroke-width:1;" x1="728.8959" x2="734.5237" y1="213.2284" y2="221.4944"/><line style="stroke:#181818;stroke-width:1;" x1="728.8959" x2="722.5363" y1="213.2284" y2="220.9456"/><line style="stroke:#181818;stroke-width:1;" x1="728.8959" x2="728.53" y1="213.2284" y2="221.22"/><ellipse cx="729.1703" cy="207.2347" fill="none" rx="4" ry="4" style="stroke:#181818;stroke-width:1;"/><text fill="#000000" font-family="sans-serif" font-size="13" lengthAdjust="spacing" textLength="4.1323" x="732.75" y="163.2569">&#160;</text></g><!--SRC=[jP9HQuCm58NV_HMtxgN2olOyH2XCHq4S6mfxaqHZ3JD9IInOsltt9KwdRZe6Ou50o7Topxb9LZafA2TG8roHTUD0LY6be07NXNLyVHK4MpqSy3nhrKaFaZ8aJ-ahEPa3BlOQzmOFl12Iq3t_vDHmwbdMXqTM7R5ou6p1f1BD7RY3NHJx3_wpPXmneZTY_oM6w57F90mXYNPFYQyfGnpjYVmgqAGI6QgfuD_GMny0IyIpalmYmxWJ4pkT2CQkSsa7HqOO9lB_3NNnKl1-twYEnZWLHPgLjCebuQDgztwmJS8OReUWwY1a_UV76LnhWfYQQM3Ek-rtAS3Fbp5MjXMMfDgi_NvmkMmsuWpzLz1QkqJAdjBksURXAAuHs5QtNi3l]--></g></svg>